<svg width="64" height="64" viewBox="0 0 64 64" fill="none" xmlns="http://www.w3.org/2000/svg">
<path d="M46.8996 20.023C46.8996 21.5921 45.6276 22.864 44.0585 22.864C42.4894 22.864 41.2174 21.5921 41.2174 20.023C41.2174 18.4539 42.4894 17.1819 44.0585 17.1819C45.6276 17.1819 46.8996 18.4539 46.8996 20.023Z" fill="#E88523"/>
<path fill-rule="evenodd" clip-rule="evenodd" d="M31.7472 44.1044C38.2726 44.1044 43.5624 38.8146 43.5624 32.2892C43.5624 25.7638 38.2726 20.4739 31.7472 20.4739C25.2218 20.4739 19.9319 25.7638 19.9319 32.2892C19.9319 38.8146 25.2218 44.1044 31.7472 44.1044ZM39.4136 32.2892C39.4136 36.5232 35.9812 39.9556 31.7472 39.9556C27.5132 39.9556 24.0808 36.5232 24.0808 32.2892C24.0808 28.0552 27.5132 24.6228 31.7472 24.6228C35.9812 24.6228 39.4136 28.0552 39.4136 32.2892Z" fill="#E88523"/>
<path fill-rule="evenodd" clip-rule="evenodd" d="M22.0064 9.29004C14.684 9.29004 8.74805 15.226 8.74805 22.5484V42.1202C8.74805 49.4426 14.684 55.3785 22.0064 55.3785H41.488C48.8104 55.3785 54.8816 50.0739 54.8816 42.7515V21.8719C54.8816 14.5496 48.8104 9.29004 41.488 9.29004H22.0064ZM21.0594 13.7095L41.1272 13.5291C45.8594 13.5291 50.5524 17.5456 50.5524 22.2778V41.9849C50.5524 46.717 46.1751 51.0944 41.4429 51.0944H22.2319C17.4997 51.0944 12.9871 45.6798 12.9871 40.9477V22.864C12.9871 18.1319 16.3272 13.7095 21.0594 13.7095Z" fill="#E88523"/>
</svg>
