<svg width="451" height="117" viewBox="0 0 451 117" fill="none" xmlns="http://www.w3.org/2000/svg">
<path d="M27.9082 26.2375H430.908V89.2375H27.9082V26.2375Z" fill="#F7F7F7"/>
<path d="M28.0082 26.2375L29.5189 10.309L28.7652 10.2375H28.0082V26.2375ZM53.1882 28.6257L51.6775 44.5542L53.6295 44.7394L55.5685 44.4476L53.1882 28.6257ZM78.4682 24.8224L79.7927 8.87736L77.9331 8.7229L76.0879 9.0005L78.4682 24.8224ZM103.748 26.9223L102.424 42.8674L102.746 42.8942L103.07 42.9079L103.748 26.9223ZM129.028 27.995L128.35 43.9806L131.127 44.0984L133.781 43.2726L129.028 27.995ZM154.308 20.1298L154.976 4.14375L152.204 4.02788L149.555 4.85213L154.308 20.1298ZM179.588 21.1864L180.445 5.20939L180.351 5.20434L180.256 5.20041L179.588 21.1864ZM204.868 22.5417L206.08 6.58758L205.902 6.57412L205.725 6.5646L204.868 22.5417ZM230.148 24.4611L235.624 9.42743L233.555 8.67372L231.36 8.507L230.148 24.4611ZM255.428 33.6697L249.952 48.7034L254.598 50.3957L259.388 49.1719L255.428 33.6697ZM280.708 27.2117L280.655 11.2118L278.671 11.2184L276.748 11.7096L280.708 27.2117ZM305.988 27.1273L306.248 11.1294L306.091 11.1268L305.935 11.1273L305.988 27.1273ZM331.268 27.538L333.824 11.7434L332.683 11.5588L331.528 11.5401L331.268 27.538ZM356.548 31.6282L353.993 47.4228L357.029 47.9141L360.031 47.2445L356.548 31.6282ZM381.828 25.99L385.311 41.6063L386.101 41.4302L386.869 41.1754L381.828 25.99ZM407.108 17.5991L415.779 4.15218L409.34 4.57764e-05L402.068 2.4137L407.108 17.5991ZM422.8 27.7176L437.442 21.2662L435.506 16.8725L431.471 14.2707L422.8 27.7176ZM433.939 52.9976L449.936 52.6719L449.871 49.4736L448.581 46.5462L433.939 52.9976ZM434.454 78.2776L440.385 93.1377L450.676 89.0302L450.451 77.9519L434.454 78.2776ZM416.588 85.4082L421.159 100.741L421.85 100.535L422.519 100.268L416.588 85.4082ZM391.308 92.9446L385.904 108.004L390.847 109.778L395.879 108.278L391.308 92.9446ZM366.028 83.8726L371.432 68.813L367.268 67.3185L362.927 68.176L366.028 83.8726ZM340.748 88.8669L339.993 104.849L341.939 104.941L343.849 104.564L340.748 88.8669ZM315.468 87.6729L314.683 103.654L314.698 103.654L314.713 103.655L315.468 87.6729ZM290.188 86.4309L290.973 70.4502L288.354 70.3215L285.83 71.0358L290.188 86.4309ZM264.908 93.5867L263.539 109.528L266.452 109.778L269.266 108.982L264.908 93.5867ZM239.628 91.4156L240.997 75.4742L238.34 75.246L235.753 75.892L239.628 91.4156ZM214.348 97.7268L213.659 113.712L215.975 113.812L218.224 113.25L214.348 97.7268ZM189.068 96.6363L189.758 80.6512L189.162 80.6255L188.567 80.6442L189.068 96.6363ZM163.788 97.4289L158.149 112.402L161.118 113.52L164.29 113.421L163.788 97.4289ZM138.508 87.908L144.147 72.9347L141.462 71.9235L138.594 71.9082L138.508 87.908ZM113.228 87.7731L111.741 103.704L112.44 103.769L113.143 103.773L113.228 87.7731ZM87.9482 85.4126L89.4357 69.4819L87.5022 69.3013L85.5817 69.5886L87.9482 85.4126ZM62.6682 89.1932L60.3017 73.3692L58.993 73.5649L57.7342 73.973L62.6682 89.1932ZM37.3882 97.3883L22.8487 104.067L28.7877 116.996L42.3222 112.609L37.3882 97.3883ZM26.3864 73.4375L10.4461 72.057L10.081 76.2718L11.8469 80.1162L26.3864 73.4375ZM28.5758 48.1575L44.5162 49.5381L44.7878 46.4023L43.8513 43.3972L28.5758 48.1575ZM21.7449 26.2375V10.2375H-0.000118256L6.46944 30.9979L21.7449 26.2375ZM27.9082 26.2375V42.2375H28.0082V26.2375V10.2375H27.9082V26.2375ZM28.0082 26.2375L26.4975 42.1661L51.6775 44.5542L53.1882 28.6257L54.6989 12.6972L29.5189 10.309L28.0082 26.2375ZM53.1882 28.6257L55.5685 44.4476L80.8485 40.6444L78.4682 24.8224L76.0879 9.0005L50.8079 12.8037L53.1882 28.6257ZM78.4682 24.8224L77.1438 40.7675L102.424 42.8674L103.748 26.9223L105.073 10.9772L79.7927 8.87736L78.4682 24.8224ZM103.748 26.9223L103.07 42.9079L128.35 43.9806L129.028 27.995L129.707 12.0094L104.427 10.9367L103.748 26.9223ZM129.028 27.995L133.781 43.2726L159.061 35.4074L154.308 20.1298L149.555 4.85213L124.275 12.7173L129.028 27.995ZM154.308 20.1298L153.64 36.1158L178.92 37.1725L179.588 21.1864L180.256 5.20041L154.976 4.14375L154.308 20.1298ZM179.588 21.1864L178.732 37.1635L204.012 38.5187L204.868 22.5417L205.725 6.5646L180.445 5.20939L179.588 21.1864ZM204.868 22.5417L203.657 38.4957L228.937 40.4152L230.148 24.4611L231.36 8.507L206.08 6.58758L204.868 22.5417ZM230.148 24.4611L224.672 39.4947L249.952 48.7034L255.428 33.6697L260.904 18.6361L235.624 9.42743L230.148 24.4611ZM255.428 33.6697L259.388 49.1719L284.668 42.7139L280.708 27.2117L276.748 11.7096L251.468 18.1676L255.428 33.6697ZM280.708 27.2117L280.762 43.2116L306.042 43.1272L305.988 27.1273L305.935 11.1273L280.655 11.2118L280.708 27.2117ZM305.988 27.1273L305.728 43.1251L331.008 43.5359L331.268 27.538L331.528 11.5401L306.248 11.1294L305.988 27.1273ZM331.268 27.538L328.713 43.3326L353.993 47.4228L356.548 31.6282L359.104 15.8336L333.824 11.7434L331.268 27.538ZM356.548 31.6282L360.031 47.2445L385.311 41.6063L381.828 25.99L378.345 10.3737L353.065 16.0119L356.548 31.6282ZM381.828 25.99L386.869 41.1754L412.149 32.7844L407.108 17.5991L402.068 2.4137L376.788 10.8047L381.828 25.99ZM407.108 17.5991L398.437 31.0459L414.13 41.1644L422.8 27.7176L431.471 14.2707L415.779 4.15218L407.108 17.5991ZM422.8 27.7176L408.159 34.169L419.297 59.449L433.939 52.9976L448.581 46.5462L437.442 21.2662L422.8 27.7176ZM433.939 52.9976L417.943 53.3232L418.457 78.6032L434.454 78.2776L450.451 77.9519L449.936 52.6719L433.939 52.9976ZM434.454 78.2776L428.523 63.4175L410.657 70.5481L416.588 85.4082L422.519 100.268L440.385 93.1377L434.454 78.2776ZM416.588 85.4082L412.017 70.0751L386.737 77.6115L391.308 92.9446L395.879 108.278L421.159 100.741L416.588 85.4082ZM391.308 92.9446L396.713 77.885L371.432 68.813L366.028 83.8726L360.624 98.9323L385.904 108.004L391.308 92.9446ZM366.028 83.8726L362.927 68.176L337.647 73.1703L340.748 88.8669L343.849 104.564L369.129 99.5692L366.028 83.8726ZM340.748 88.8669L341.503 72.8847L316.223 71.6907L315.468 87.6729L314.713 103.655L339.993 104.849L340.748 88.8669ZM315.468 87.6729L316.253 71.6921L290.973 70.4502L290.188 86.4309L289.403 102.412L314.683 103.654L315.468 87.6729ZM290.188 86.4309L285.83 71.0358L260.55 78.1915L264.908 93.5867L269.266 108.982L294.546 101.826L290.188 86.4309ZM264.908 93.5867L266.277 77.6453L240.997 75.4742L239.628 91.4156L238.259 107.357L263.539 109.528L264.908 93.5867ZM239.628 91.4156L235.753 75.892L210.473 82.2033L214.348 97.7268L218.224 113.25L243.504 106.939L239.628 91.4156ZM214.348 97.7268L215.038 81.7417L189.758 80.6512L189.068 96.6363L188.379 112.621L213.659 113.712L214.348 97.7268ZM189.068 96.6363L188.567 80.6442L163.287 81.4367L163.788 97.4289L164.29 113.421L189.57 112.628L189.068 96.6363ZM163.788 97.4289L169.427 82.4556L144.147 72.9347L138.508 87.908L132.869 102.881L158.149 112.402L163.788 97.4289ZM138.508 87.908L138.594 71.9082L113.314 71.7734L113.228 87.7731L113.143 103.773L138.423 103.908L138.508 87.908ZM113.228 87.7731L114.716 71.8424L89.4357 69.4819L87.9482 85.4126L86.4606 101.343L111.741 103.704L113.228 87.7731ZM87.9482 85.4126L85.5817 69.5886L60.3017 73.3692L62.6682 89.1932L65.0347 105.017L90.3147 101.237L87.9482 85.4126ZM62.6682 89.1932L57.7342 73.973L32.4542 82.1681L37.3882 97.3883L42.3222 112.609L67.6022 104.413L62.6682 89.1932ZM37.3882 97.3883L51.9276 90.7096L40.9258 66.7588L26.3864 73.4375L11.8469 80.1162L22.8487 104.067L37.3882 97.3883ZM26.3864 73.4375L42.3267 74.8181L44.5162 49.5381L28.5758 48.1575L12.6355 46.777L10.4461 72.057L26.3864 73.4375ZM28.5758 48.1575L43.8513 43.3972L37.0203 21.4772L21.7449 26.2375L6.46944 30.9979L13.3004 52.9178L28.5758 48.1575ZM21.7449 26.2375V42.2375H27.9082V26.2375V10.2375H21.7449V26.2375Z" fill="#F7F7F7"/>
</svg>
