<svg width="193" height="43" viewBox="0 0 193 43" fill="none" xmlns="http://www.w3.org/2000/svg">
<path d="M101.742 21.2735V14.652H108.317C111.776 14.652 114.582 17.4765 114.582 20.9623V27.5838H108.008C104.549 27.5838 101.742 24.7593 101.742 21.2735Z" fill="#101932"/>
<path d="M87.4062 6.02721V0H108.958C112.445 0 115.271 2.84612 115.271 6.35785V12.3851H93.719C90.2322 12.3851 87.4062 9.53893 87.4062 6.02721Z" fill="#101932"/>
<path d="M93.5924 14.518H99.6263V35.8391C99.6263 39.3227 96.8218 42.1494 93.3607 42.1494H87.3268V20.8283C87.3268 17.3447 90.1313 14.518 93.5924 14.518Z" fill="#101932"/>
<path d="M12.9385 29.4089H10.5221V14.6749H21.0128V16.8555H12.9385V20.9811H18.95V23.1028H12.9385V29.4089ZM21.978 29.4089H19.3848L25.023 14.6749H27.7734L33.4313 29.4089H30.8381L29.3843 25.5191H23.4317L21.978 29.4089ZM26.4178 17.7592L24.2569 23.4171H28.5592L26.4178 17.7592ZM36.9312 29.4089H34.5148V14.6749H41.3711C44.0625 14.6749 45.9288 16.7573 45.9288 19.1344C45.9288 21.1186 44.6715 22.8277 42.8445 23.2206L42.5105 23.2796L45.8895 29.4089H43.1588L39.9566 23.5939H36.9312V29.4089ZM36.9312 16.8948V21.3936H41.2925C42.4516 21.3936 43.4731 20.4703 43.4731 19.154C43.4731 17.8378 42.4516 16.8948 41.2925 16.8948H36.9312ZM49.5967 29.4089H47.0035L52.6417 14.6749H55.3921L61.0499 29.4089H58.4568L57.003 25.5191H51.0504L49.5967 29.4089ZM54.0365 17.7592L51.8755 23.4171H56.1779L54.0365 17.7592ZM64.5499 29.4089H62.1335V14.6749H64.5499V20.8239H71.7794V14.6749H74.1762V29.4089H71.7794V23.142H64.5499V29.4089ZM129.457 29.4089H127.04V14.6749H137.531V16.8555H129.457V20.9811H135.468V23.1028H129.457V29.4089ZM138.496 29.4089H135.903L141.541 14.6749H144.291L149.949 29.4089H147.356L145.902 25.5191H139.95L138.496 29.4089ZM142.936 17.7592L140.775 23.4171H145.077L142.936 17.7592ZM157.151 29.6643C152.967 29.6643 149.568 26.246 149.568 22.0419C149.568 17.8574 152.967 14.4784 157.151 14.4784C161.355 14.4784 164.754 17.8574 164.754 22.0419C164.754 24.3994 163.595 26.4228 161.866 27.5819H164.184V29.4089H159.076C158.467 29.5661 157.819 29.6643 157.151 29.6643ZM157.151 27.2283C160.039 27.2283 162.337 24.9298 162.337 22.0419C162.337 19.213 160.039 16.8948 157.151 16.8948C154.283 16.8948 152.004 19.213 152.004 22.0419C152.004 24.9298 154.283 27.2283 157.151 27.2283ZM168.467 29.4089H166.051V14.6749H168.467V29.4089ZM172.838 29.4089H170.421V14.6749H177.277C179.969 14.6749 181.835 16.7573 181.835 19.1344C181.835 21.1186 180.578 22.8277 178.751 23.2206L178.417 23.2796L181.796 29.4089H179.065L175.863 23.5939H172.838V29.4089ZM172.838 16.8948V21.3936H177.199C178.358 21.3936 179.38 20.4703 179.38 19.154C179.38 17.8378 178.358 16.8948 177.199 16.8948H172.838Z" fill="#101932"/>
</svg>
