<svg width="64" height="64" viewBox="0 0 64 64" fill="none" xmlns="http://www.w3.org/2000/svg">
<path fill-rule="evenodd" clip-rule="evenodd" d="M31.8354 54.9277C44.5873 54.9277 54.9248 44.5902 54.9248 31.8384C54.9248 19.0865 44.5873 8.74902 31.8354 8.74902C19.0835 8.74902 8.74609 19.0865 8.74609 31.8384C8.74609 44.5902 19.0835 54.9277 31.8354 54.9277ZM50.7401 31.8384C50.7401 42.2791 42.2762 50.7431 31.8354 50.7431C21.3947 50.7431 12.9307 42.2791 12.9307 31.8384C12.9307 21.3976 21.3947 12.9337 31.8354 12.9337C42.2762 12.9337 50.7401 21.3976 50.7401 31.8384Z" fill="#EAAA1E"/>
<path fill-rule="evenodd" clip-rule="evenodd" d="M31.8354 54.7308C37.654 54.7308 42.3709 44.4815 42.3709 31.8384C42.3709 19.1952 37.654 8.94595 31.8354 8.94595C26.0169 8.94595 21.3 19.1952 21.3 31.8384C21.3 44.4815 26.0169 54.7308 31.8354 54.7308ZM38.137 31.8384C38.137 42.217 35.3157 50.6306 31.8354 50.6306C28.3552 50.6306 25.5339 42.217 25.5339 31.8384C25.5339 21.4597 28.3552 13.0461 31.8354 13.0461C35.3157 13.0461 38.137 21.4597 38.137 31.8384Z" fill="#EAAA1E"/>
<path d="M10.4692 29.623H53.3001V33.9553H10.4692V29.623Z" fill="#EAAA1E"/>
</svg>
